<?xml version="1.0" encoding="utf-8"?>
<!-- Generator: Adobe Illustrator 18.1.1, SVG Export Plug-In . SVG Version: 6.00 Build 0)  -->
<!DOCTYPE svg PUBLIC "-//W3C//DTD SVG 1.1//EN" "http://www.w3.org/Graphics/SVG/1.1/DTD/svg11.dtd">
<svg version="1.1" id="Layer_1" xmlns="http://www.w3.org/2000/svg" xmlns:xlink="http://www.w3.org/1999/xlink" x="0px" y="0px"
	 viewBox="0 0 16 16" enable-background="new 0 0 16 16" xml:space="preserve">
<path fill="#808080" d="M14.8,0H1.2C0.6,0,0,0.6,0,1.2C0,1.5,0.1,1.8,0.3,2l0.2,0.2l4.5,4.5v6.3l0,0c0,0,0,0,0,0.1
	c0,0.7,0.4,1.3,0.9,1.6L8,15.8C8.2,15.9,8.4,16,8.6,16c0.7,0,1.2-0.5,1.2-1.2V7.9l5.7-5.7L15.7,2C15.9,1.8,16,1.5,16,1.2
	C16,0.6,15.4,0,14.8,0z"/>
</svg>
